<?xml version="1.0" encoding="UTF-8"?>
<svg id="Capa_2" data-name="Capa 2" xmlns="http://www.w3.org/2000/svg" xmlns:xlink="http://www.w3.org/1999/xlink" viewBox="0 0 56.19 75.17">
  <defs>
    <style>
      .cls-1 {
        fill: #fdfdfd;
      }

      .cls-2 {
        fill: url(#Degradado_sin_nombre_4);
      }
    </style>
    <linearGradient id="Degradado_sin_nombre_4" data-name="Degradado sin nombre 4" x1="8.73" y1="51.2" x2="46.9" y2="13.03" gradientUnits="userSpaceOnUse">
      <stop offset=".09" stop-color="#050505"/>
      <stop offset=".25" stop-color="#050508"/>
      <stop offset=".41" stop-color="#070514"/>
      <stop offset=".56" stop-color="#0a0528"/>
      <stop offset=".71" stop-color="#0f0543"/>
      <stop offset=".86" stop-color="#150566"/>
      <stop offset="1" stop-color="#1c058e"/>
    </linearGradient>
  </defs>
  <g id="Capa_6" data-name="Capa 6">
    <g>
      <g>
        <g>
          <path class="cls-1" d="m4.67,70.98c.08,0,.13.04.13.13v.58c0,.08-.05.13-.13.13h-2.61c-.62,0-.8.17-.8.8v.09h3.37c.08,0,.13.05.13.13v.53c0,.09-.05.13-.13.13H1.26v1.53c0,.09-.04.13-.13.13H.48c-.09,0-.13-.04-.13-.13v-2.48c0-1.15.46-1.58,1.68-1.58h2.64Z"/>
          <path class="cls-1" d="m7.37,70.98c.09,0,.13.04.13.13v2.39c0,.64.18.82.8.82h1.66c.62,0,.79-.19.79-.82v-2.39c0-.09.05-.13.13-.13h.65c.09,0,.13.04.13.13v2.48c0,1.15-.46,1.58-1.68,1.58h-1.72c-1.22,0-1.68-.43-1.68-1.58v-2.48c0-.09.04-.13.13-.13h.65Z"/>
          <path class="cls-1" d="m17.83,70.98c.08,0,.13.04.13.13v.58c0,.08-.05.13-.13.13h-3c-.22,0-.32.1-.32.32v.2c0,.22.1.31.32.31h2.24c.67,0,1.05.38,1.05,1.06v.49c0,.62-.37.98-1.06.98h-3.32c-.09,0-.13-.04-.13-.13v-.58c0-.08.04-.13.13-.13h3.15c.21,0,.32-.1.32-.32v-.25c0-.22-.09-.31-.31-.31h-2.25c-.67,0-1.04-.38-1.04-1.06v-.44c0-.62.37-.98,1.06-.98h3.18Z"/>
          <path class="cls-1" d="m22.42,70.98c.31,0,.49.09.69.46l1.98,3.6c.04.08.02.14-.07.14h-.76c-.08,0-.11-.02-.14-.07l-.4-.73h-2.87l-.39.73c-.03.05-.06.07-.14.07h-.79c-.1,0-.11-.05-.07-.14l1.97-3.6c.19-.37.38-.46.63-.46h.35Zm.88,2.61l-.93-1.72s-.04-.04-.07-.04h-.04s-.05.01-.07.04l-.92,1.72h2.03Z"/>
        </g>
        <g>
          <path class="cls-1" d="m32.3,70.98c.09,0,.13.04.13.13v2.39c0,.64.18.82.8.82h2.43c.08,0,.13.04.13.13v.59c0,.09-.05.13-.13.13h-2.46c-1.22,0-1.68-.43-1.68-1.58v-2.48c0-.09.04-.13.13-.13h.65Z"/>
          <path class="cls-1" d="m40.19,70.98c.31,0,.49.09.69.46l1.98,3.6c.04.08.02.14-.07.14h-.76c-.08,0-.11-.02-.14-.07l-.4-.73h-2.87l-.39.73c-.03.05-.06.07-.14.07h-.79c-.1,0-.11-.05-.07-.14l1.97-3.6c.19-.37.38-.46.63-.46h.35Zm.88,2.61l-.93-1.72s-.04-.04-.07-.04h-.04s-.05.01-.07.04l-.92,1.72h2.03Z"/>
          <path class="cls-1" d="m48.21,70.98c.81,0,1.14.31,1.14.99v.29c0,.34-.13.59-.38.76.28.16.41.42.41.78v.35c0,.68-.31,1.04-1.06,1.04h-3.56c-.12,0-.18-.06-.18-.18v-3.84c0-.12.06-.18.18-.18h3.45Zm-.26,1.71c.39,0,.52-.08.52-.32v-.18c0-.25-.14-.37-.44-.37h-2.45c-.05,0-.08.02-.08.08v.79h2.46Zm-2.46,1.57c0,.06.02.08.08.08h2.46c.31,0,.44-.11.44-.38v-.2c0-.26-.13-.35-.52-.35h-2.46v.84Z"/>
          <path class="cls-1" d="m55.46,70.98c.08,0,.13.04.13.13v.58c0,.08-.05.13-.13.13h-3c-.22,0-.32.1-.32.32v.2c0,.22.1.31.32.31h2.24c.67,0,1.05.38,1.05,1.06v.49c0,.62-.37.98-1.06.98h-3.32c-.09,0-.13-.04-.13-.13v-.58c0-.08.04-.13.13-.13h3.15c.21,0,.32-.1.32-.32v-.25c0-.22-.09-.31-.31-.31h-2.25c-.67,0-1.04-.38-1.04-1.06v-.44c0-.62.37-.98,1.06-.98h3.18Z"/>
        </g>
      </g>
      <path class="cls-1" d="m54.24,14.49L30.04.52c-1.2-.7-2.69-.7-3.89,0L1.95,14.49C.74,15.19,0,16.47,0,17.87v27.94c0,1.39.74,2.68,1.95,3.37l24.2,13.97c1.2.7,2.69.7,3.89,0l24.2-13.97c1.2-.7,1.95-1.98,1.95-3.37v-27.94c0-1.39-.74-2.68-1.95-3.37Z"/>
      <path class="cls-2" d="m53.21,15.18L29.96,1.75c-1.16-.67-2.58-.67-3.74,0L2.98,15.18c-1.16.67-1.87,1.9-1.87,3.24v26.85c0,1.34.71,2.57,1.87,3.24l23.25,13.42c1.16.67,2.58.67,3.74,0l23.25-13.42c1.16-.67,1.87-1.9,1.87-3.24v-26.85c0-1.34-.71-2.57-1.87-3.24Z"/>
      <g>
        <path class="cls-1" d="m20.84,27.62c.49-.2-1.87-.14-1.87-.14v-3.62h7.5c.27,0,.5-.23.5-.5v-6c0-.27-.23-.5-.5-.5h-9.5c-2.76,0-5,2.24-5,5v14.31c0,.09.13.11.15.02.43-1.83,3.32-6.42,8.72-8.58Z"/>
        <path class="cls-1" d="m25.51,27.38s17.6-5.74,14.99-12.91c5.17,14.22-12.6,19.48-12.6,19.48h0s-17.6,5.74-14.99,12.91c-5.17-14.22,12.6-19.48,12.6-19.48h0Z"/>
        <path class="cls-1" d="m36.22,31.4s0,.19,0,.2c0,1.03,0,7.24,0,8.27h7.5c.28,0,.5.22.5.5v6c0,.28-.22.5-.5.5h-9.5c-2.76,0-5-2.24-5-5v-6.35c0-.16.09-.6.24-.64.61-.16,4.71-1.77,6.47-3.39.06-.05.29-.46.28-.08Z"/>
        <path class="cls-1" d="m36.22,20.41v-3.04c0-.28-.22-.5-.5-.5h-6c-.28,0-.5.22-.5.5v6.66c0,.21.22.35.41.26,1.21-.57,4.77-2.28,6.43-3.54.11-.08.16-.2.16-.34Z"/>
      </g>
    </g>
  </g>
</svg>