<?xml version="1.0" encoding="UTF-8"?>
<svg id="Capa_2" data-name="Capa 2" xmlns="http://www.w3.org/2000/svg" viewBox="0 0 60.12 79.49">
  <defs>
    <style>
      .cls-1 {
        fill: #050505;
      }
    </style>
  </defs>
  <g id="Capa_6" data-name="Capa 6">
    <g>
      <g>
        <g>
          <path class="cls-1" d="m6.71,75.23c.09,0,.13.04.13.13v.59c0,.08-.05.13-.13.13h-2.65c-.63,0-.81.18-.81.82v.09h3.42c.08,0,.13.05.13.13v.54c0,.09-.05.13-.13.13h-3.42v1.55c0,.09-.04.13-.13.13h-.66c-.09,0-.13-.04-.13-.13v-2.52c0-1.17.47-1.61,1.71-1.61h2.68Z"/>
          <path class="cls-1" d="m9.44,75.23c.09,0,.13.04.13.13v2.43c0,.65.18.83.81.83h1.69c.63,0,.8-.19.8-.83v-2.43c0-.09.05-.13.13-.13h.66c.09,0,.13.04.13.13v2.52c0,1.17-.47,1.61-1.7,1.61h-1.75c-1.24,0-1.71-.44-1.71-1.61v-2.52c0-.09.04-.13.13-.13h.66Z"/>
          <path class="cls-1" d="m20.04,75.23c.08,0,.13.04.13.13v.59c0,.08-.05.13-.13.13h-3.05c-.22,0-.32.1-.32.33v.21c0,.22.1.31.32.31h2.28c.68,0,1.07.39,1.07,1.07v.49c0,.63-.38.99-1.08.99h-3.37c-.09,0-.13-.04-.13-.13v-.59c0-.08.04-.13.13-.13h3.2c.21,0,.32-.1.32-.33v-.25c0-.22-.09-.31-.32-.31h-2.28c-.68,0-1.06-.39-1.06-1.07v-.45c0-.63.37-.99,1.07-.99h3.23Z"/>
          <path class="cls-1" d="m24.7,75.23c.32,0,.5.09.7.46l2.02,3.66c.04.09.02.14-.07.14h-.77c-.08,0-.12-.02-.14-.07l-.4-.74h-2.92l-.4.74c-.03.06-.06.07-.14.07h-.8c-.1,0-.12-.05-.07-.14l2-3.66c.2-.37.38-.46.64-.46h.36Zm.9,2.65l-.94-1.75s-.04-.04-.07-.04h-.04s-.05.01-.07.04l-.94,1.75h2.06Z"/>
        </g>
        <g>
          <path class="cls-1" d="m34.7,75.23c.09,0,.13.04.13.13v2.43c0,.65.18.83.81.83h2.47c.08,0,.13.04.13.13v.6c0,.09-.05.13-.13.13h-2.5c-1.24,0-1.71-.44-1.71-1.61v-2.52c0-.09.04-.13.13-.13h.66Z"/>
          <path class="cls-1" d="m42.71,75.23c.32,0,.5.09.7.46l2.01,3.66c.04.09.03.14-.07.14h-.77c-.08,0-.12-.02-.14-.07l-.4-.74h-2.92l-.4.74c-.03.06-.06.07-.14.07h-.8c-.1,0-.12-.05-.07-.14l2-3.66c.19-.37.38-.46.64-.46h.36Zm.89,2.65l-.94-1.75s-.04-.04-.07-.04h-.04s-.05.01-.07.04l-.94,1.75h2.06Z"/>
          <path class="cls-1" d="m50.84,75.23c.82,0,1.16.31,1.16,1v.29c0,.35-.13.6-.38.77.28.16.41.43.41.79v.35c0,.69-.31,1.05-1.08,1.05h-3.61c-.12,0-.18-.06-.18-.18v-3.9c0-.12.06-.18.18-.18h3.5Zm-.26,1.73c.4,0,.52-.08.52-.32v-.18c0-.26-.14-.38-.45-.38h-2.49c-.05,0-.08.02-.08.09v.8h2.5Zm-2.5,1.59c0,.06.02.08.08.08h2.5c.31,0,.45-.12.45-.38v-.2c0-.26-.13-.35-.53-.35h-2.5v.85Z"/>
          <path class="cls-1" d="m58.19,75.23c.09,0,.13.04.13.13v.59c0,.08-.05.13-.13.13h-3.05c-.22,0-.32.1-.32.33v.21c0,.22.1.31.32.31h2.28c.68,0,1.07.39,1.07,1.07v.49c0,.63-.38.99-1.08.99h-3.37c-.09,0-.13-.04-.13-.13v-.59c0-.08.04-.13.13-.13h3.2c.21,0,.32-.1.32-.33v-.25c0-.22-.09-.31-.32-.31h-2.28c-.68,0-1.06-.39-1.06-1.07v-.45c0-.63.37-.99,1.07-.99h3.23Z"/>
        </g>
      </g>
      <path class="cls-1" d="m58.04,15.51L32.14.56c-1.29-.74-2.88-.74-4.17,0L2.08,15.51c-1.29.74-2.08,2.12-2.08,3.61v29.9c0,1.49.79,2.86,2.08,3.61l25.89,14.95c1.29.74,2.88.74,4.17,0l25.89-14.95c1.29-.74,2.08-2.12,2.08-3.61v-29.9c0-1.49-.79-2.86-2.08-3.61Zm.9,32.92c0,1.43-.76,2.75-2,3.47l-24.88,14.36c-1.24.71-2.76.71-4,0L3.18,51.89c-1.24-.71-2-2.04-2-3.47v-28.72c0-1.43.76-2.75,2-3.47L28.06,1.88c1.24-.71,2.76-.71,4,0l24.88,14.36c1.24.71,2,2.04,2,3.47v28.72Z"/>
      <path class="cls-1" d="m55.9,17.08L32.34,3.47c-1.17-.68-2.62-.68-3.79,0L4.98,17.08c-1.17.68-1.9,1.93-1.9,3.28v27.21c0,1.35.72,2.61,1.9,3.28l23.56,13.6c1.17.68,2.62.68,3.79,0l23.56-13.6c1.17-.68,1.9-1.93,1.9-3.28v-27.21c0-1.35-.72-2.61-1.9-3.28Zm-24.32,2.22c0-.28.23-.51.51-.51h6.08c.28,0,.51.23.51.51v3.09c0,.13-.06.26-.16.34-1.68,1.27-5.29,3.01-6.52,3.59-.19.09-.42-.05-.42-.27v-6.75Zm-17.48,4.56c0-2.8,2.27-5.07,5.07-5.07h9.63c.28,0,.51.23.51.51v6.08c0,.28-.23.51-.51.51h-7.6v3.67s2.39-.06,1.89.14c-5.48,2.19-8.4,6.84-8.84,8.7-.02.09-.15.07-.15-.02v-14.51Zm16.15,12.26s-17.84,5.81-15.19,13.08c-5.25-14.41,12.77-19.75,12.77-19.75h0s17.84-5.82,15.19-13.09c5.25,14.41-12.77,19.75-12.77,19.75h0Zm16.54,12.58c0,.28-.23.51-.51.51h-9.63c-2.8,0-5.07-2.27-5.07-5.07v-6.43c0-.16.09-.61.25-.65.62-.16,4.77-1.8,6.56-3.44.06-.05.3-.47.29-.09,0,0,0,.2,0,.2v8.38h7.6c.28,0,.51.23.51.51v6.08Z"/>
    </g>
  </g>
</svg>